<svg width="32" height="32" viewBox="0 0 32 32" fill="none" xmlns="http://www.w3.org/2000/svg">
<g clip-path="url(#clip0_101_2783)">
<path d="M16 2.6671C19.5724 2.67885 22.9917 4.11912 25.4957 6.66698H21.3332C20.5968 6.66698 19.9999 7.2639 19.9999 8.00025C19.9999 8.7366 20.5968 9.33352 21.3332 9.33352H26.857C28.2241 9.33277 29.3322 8.22468 29.3329 6.8576V1.33377C29.3329 0.597418 28.736 0.000499183 27.9996 0.000499183C27.2633 0.000499183 26.6664 0.597418 26.6664 1.33377V4.10437C20.1108 -1.79963 10.0103 -1.2714 4.10626 5.28421C1.79577 7.84975 0.378628 11.0948 0.0672004 14.5334C-0.00129748 15.2717 0.541748 15.9258 1.2801 15.9942C1.3201 15.9979 1.36028 15.9999 1.40053 16C2.07633 16.0086 2.64762 15.5015 2.71918 14.8293C3.33429 7.95056 9.09379 2.67617 16 2.6671Z" fill="white"/>
<path d="M30.6006 16.0001C29.9248 15.9915 29.3535 16.4987 29.2819 17.1708C28.6457 24.4964 22.1913 29.9192 14.8656 29.2829C11.696 29.0076 8.72977 27.6064 6.50403 25.3331H10.6666C11.4029 25.3331 11.9999 24.7362 11.9999 23.9999C11.9999 23.2635 11.4029 22.6666 10.6666 22.6666H5.14276C3.77605 22.6658 2.66759 23.7732 2.66684 25.1398C2.66684 25.1407 2.66684 25.1416 2.66684 25.1425V30.6663C2.66684 31.4027 3.26376 31.9996 4.00011 31.9996C4.73646 31.9996 5.33338 31.4027 5.33338 30.6663V27.8957C11.889 33.7997 21.9894 33.2715 27.8934 26.7159C30.204 24.1504 31.6211 20.9053 31.9326 17.4667C32.001 16.7283 31.458 16.0743 30.7196 16.0058C30.6801 16.0022 30.6403 16.0002 30.6006 16.0001Z" fill="white"/>
</g>
<defs>
<clipPath id="clip0_101_2783">
<rect width="32" height="32" fill="white"/>
</clipPath>
</defs>
</svg>
