<svg width="32" height="32" viewBox="0 0 32 32" fill="none" xmlns="http://www.w3.org/2000/svg">
<g clip-path="url(#clip0_101_2769)">
<path d="M31.2187 21.4533C31.2187 21.4533 19.5733 16.16 19.532 16.1467C18.5613 15.816 17.508 16.06 16.7827 16.7853C16.0573 17.5107 15.8133 18.564 16.1933 19.6533L21.452 31.22C21.664 31.688 22.1267 31.992 22.6413 32.0013H22.6667C23.1707 32.0013 23.6333 31.716 23.86 31.264L26.328 26.328L31.264 23.86C31.724 23.6293 32.0107 23.1573 32.0013 22.6427C31.992 22.1293 31.688 21.6667 31.22 21.4533H31.2187ZM24.7373 24.1413C24.48 24.2707 24.2693 24.48 24.1413 24.7373L22.7227 27.5747L18.664 18.6733L27.572 22.724L24.7387 24.14L24.7373 24.1413ZM17.216 29.28C16.9867 29.3 16.756 29.3147 16.5227 29.324C15.632 28.4427 13.3093 25.9667 11.6907 22.668H12.6667C13.4027 22.668 14 22.072 14 21.3347C14 20.5973 13.4027 20.0013 12.6667 20.0013H10.6267C10.2387 18.732 10 17.388 10 16.0013C10 14.6147 10.24 13.272 10.6293 12.0013H21.372C21.5293 12.5173 21.6627 13.0453 21.7653 13.584C21.904 14.308 22.604 14.7853 23.324 14.644C24.0467 14.5067 24.5213 13.808 24.384 13.0853C24.3147 12.7187 24.232 12.3573 24.14 12.0013H28.664C28.6813 12.0013 28.7 12.0013 28.7173 12.0013C29.116 13.2653 29.3307 14.6093 29.3307 16.0027C29.3307 16.412 29.312 16.816 29.276 17.216C29.2107 17.9493 29.7507 18.5973 30.484 18.664C31.22 18.736 31.8667 18.1893 31.932 17.456C31.9747 16.9773 31.9973 16.492 31.9973 16.0027C32 7.17733 24.8227 0 16 0C7.17733 0 0 7.17733 0 16C0 24.8227 7.17733 32 15.9987 32C16.488 32 16.972 31.9773 17.4493 31.9347C18.1827 31.8693 18.7253 31.2227 18.66 30.488C18.5947 29.756 17.9493 29.2147 17.2147 29.2787L17.216 29.28ZM7.856 20.0013H3.33333C3.316 20.0013 3.29867 20.0013 3.28 20.0013C2.88133 18.7373 2.66667 17.3933 2.66667 16C2.66667 14.6067 2.88133 13.2627 3.28 11.9987C3.29733 11.9987 3.31467 11.9987 3.33333 11.9987H7.856C7.52933 13.272 7.33333 14.6107 7.33333 15.9987C7.33333 17.3867 7.528 18.7253 7.856 19.9987V20.0013ZM11.6973 9.33467C13.0587 6.56533 14.9173 4.36933 16.0027 3.21733C17.0893 4.368 18.948 6.56 20.3093 9.33467H11.6973ZM27.544 9.33467H23.24C22.1853 6.82 20.7227 4.684 19.464 3.12533C22.9027 4.052 25.796 6.32133 27.544 9.33467ZM12.5333 3.12533C11.2747 4.684 9.81067 6.82 8.75733 9.33333H4.456C6.20267 6.32 9.09467 4.05067 12.5333 3.12533ZM4.456 22.6667H8.75733C9.81067 25.1813 11.2747 27.316 12.5333 28.8747C9.096 27.948 6.204 25.6787 4.456 22.6667Z" fill="white"/>
</g>
<defs>
<clipPath id="clip0_101_2769">
<rect width="32" height="32" fill="white"/>
</clipPath>
</defs>
</svg>
