<svg width="33" height="32" viewBox="0 0 33 32" fill="none" xmlns="http://www.w3.org/2000/svg">
<g clip-path="url(#clip0_101_2776)">
<path d="M28.5 8.00033H7.16667C6.02133 8.00033 4.93733 7.50433 4.18667 6.66833C4.92 5.84966 5.98533 5.33366 7.16667 5.33366H31.1667C31.904 5.33366 32.5 4.73633 32.5 4.00033C32.5 3.26433 31.904 2.66699 31.1667 2.66699H7.16667C3.48533 2.66699 0.5 5.65233 0.5 9.33366V22.667C0.5 26.3483 3.48533 29.3337 7.16667 29.3337H28.5C30.7093 29.3337 32.5 27.543 32.5 25.3337V12.0003C32.5 9.79099 30.7093 8.00033 28.5 8.00033ZM29.8333 25.3337C29.8333 26.0683 29.236 26.667 28.5 26.667H7.16667C4.96133 26.667 3.16667 24.8723 3.16667 22.667V9.33099C4.30533 10.183 5.70533 10.667 7.16667 10.667H28.5C29.236 10.667 29.8333 11.2657 29.8333 12.0003V25.3337ZM27.1667 18.667C27.1667 19.403 26.5693 20.0003 25.8333 20.0003C25.0973 20.0003 24.5 19.403 24.5 18.667C24.5 17.931 25.0973 17.3337 25.8333 17.3337C26.5693 17.3337 27.1667 17.931 27.1667 18.667Z" fill="white"/>
</g>
<defs>
<clipPath id="clip0_101_2776">
<rect width="32" height="32" fill="white" transform="translate(0.5)"/>
</clipPath>
</defs>
</svg>
