<svg width="33" height="32" viewBox="0 0 33 32" fill="none" xmlns="http://www.w3.org/2000/svg">
<g clip-path="url(#clip0_101_2791)">
<path d="M32.2816 11.7249C32.0089 10.8568 31.464 10.0995 30.7275 9.56499C29.9911 9.03049 29.1022 8.74717 28.1923 8.75695H22.3669L20.5976 3.24228C20.3194 2.37422 19.7726 1.61697 19.0362 1.0797C18.2998 0.542436 17.4118 0.25293 16.5003 0.25293C15.5887 0.25293 14.7007 0.542436 13.9643 1.0797C13.2279 1.61697 12.6812 2.37422 12.4029 3.24228L10.6336 8.75695H4.80826C3.90125 8.75824 3.01785 9.04613 2.28423 9.57949C1.55061 10.1128 1.00431 10.8644 0.723352 11.7268C0.442393 12.5892 0.44115 13.5183 0.719799 14.3815C0.998449 15.2446 1.54274 15.9976 2.27492 16.5329L7.01626 19.9996L5.21359 25.5823C4.92227 26.4481 4.91858 27.3849 5.20307 28.2531C5.48756 29.1212 6.04499 29.8741 6.79226 30.3996C7.52673 30.942 8.41678 31.2325 9.3298 31.228C10.2428 31.2234 11.1299 30.924 11.8589 30.3743L16.5003 26.9583L21.1429 30.3703C21.8761 30.9095 22.7613 31.2025 23.6714 31.2069C24.5815 31.2113 25.4696 30.9271 26.2079 30.395C26.9463 29.8629 27.4969 29.1103 27.7806 28.2456C28.0644 27.3808 28.0666 26.4484 27.7869 25.5823L25.9843 19.9996L30.7309 16.5329C31.4715 16.0043 32.0222 15.2513 32.3014 14.3854C32.5807 13.5195 32.5738 12.5866 32.2816 11.7249ZM29.1576 14.3796L23.6323 18.4183C23.4053 18.5838 23.2365 18.8168 23.1498 19.0841C23.0631 19.3513 23.063 19.639 23.1496 19.9063L25.2496 26.3996C25.3559 26.729 25.3549 27.0835 25.247 27.4123C25.1391 27.7411 24.9296 28.0272 24.6488 28.2294C24.368 28.4317 24.0303 28.5397 23.6843 28.538C23.3382 28.5362 23.0016 28.4247 22.7229 28.2196L17.2896 24.2196C17.0607 24.0515 16.7842 23.9609 16.5003 23.9609C16.2163 23.9609 15.9398 24.0515 15.7109 24.2196L10.2776 28.2196C9.99903 28.4275 9.66151 28.5413 9.31394 28.5444C8.96638 28.5476 8.62685 28.4399 8.34456 28.2372C8.06228 28.0344 7.85192 27.7469 7.74399 27.4165C7.63605 27.0861 7.63614 26.7299 7.74426 26.3996L9.85092 19.9063C9.93748 19.639 9.93742 19.3513 9.85074 19.0841C9.76406 18.8168 9.5952 18.5838 9.36826 18.4183L3.84292 14.3796C3.56466 14.1759 3.3579 13.8894 3.25218 13.5611C3.14646 13.2329 3.14718 12.8796 3.25424 12.5517C3.3613 12.2239 3.56922 11.9383 3.84831 11.7357C4.1274 11.5331 4.46338 11.4239 4.80826 11.4236H11.6083C11.8905 11.4236 12.1655 11.334 12.3937 11.1677C12.6218 11.0014 12.7912 10.767 12.8776 10.4983L14.9443 4.05695C15.0503 3.72733 15.2583 3.43987 15.5381 3.23595C15.818 3.03202 16.1553 2.92215 16.5016 2.92215C16.8479 2.92215 17.1852 3.03202 17.4651 3.23595C17.7449 3.43987 17.9528 3.72733 18.0589 4.05695L20.1256 10.4983C20.212 10.767 20.3814 11.0014 20.6095 11.1677C20.8376 11.334 21.1126 11.4236 21.3949 11.4236H28.1949C28.5398 11.4239 28.8758 11.5331 29.1549 11.7357C29.434 11.9383 29.6419 12.2239 29.7489 12.5517C29.856 12.8796 29.8567 13.2329 29.751 13.5611C29.6453 13.8894 29.4385 14.1759 29.1603 14.3796H29.1576Z" fill="white"/>
</g>
<defs>
<clipPath id="clip0_101_2791">
<rect width="32" height="32" fill="white" transform="translate(0.5)"/>
</clipPath>
</defs>
</svg>
