<svg width="81" height="80" viewBox="0 0 81 80" fill="none" xmlns="http://www.w3.org/2000/svg">
<g clip-path="url(#clip0_101_2814)">
<path d="M40.5 80C62.5914 80 80.5 62.0914 80.5 40C80.5 17.9086 62.5914 0 40.5 0C18.4086 0 0.5 17.9086 0.5 40C0.5 62.0914 18.4086 80 40.5 80Z" fill="url(#paint0_linear_101_2814)"/>
<path d="M69.615 40.5714H62.4637C62.4637 26.1032 50.6081 14.375 35.9827 14.375C21.5382 14.375 9.79473 25.8161 9.50736 40.0364C9.20998 54.7356 23.1506 67.5 38.0116 67.5H39.8809C52.9827 67.5 70.5431 57.3542 73.2869 44.9921C73.7937 42.7133 71.9737 40.5714 69.615 40.5714ZM25.3555 41.2159C25.3555 43.1507 23.7559 44.7331 21.8001 44.7331C19.8443 44.7331 18.2447 43.1499 18.2447 41.2159V35.5259C18.2447 33.5911 19.8443 32.0087 21.8001 32.0087C23.7559 32.0087 25.3555 33.5911 25.3555 35.5259V41.2159ZM37.7015 41.2159C37.7015 43.1507 36.1019 44.7331 34.1461 44.7331C32.1903 44.7331 30.5907 43.1499 30.5907 41.2159V35.5259C30.5907 33.5911 32.191 32.0087 34.1461 32.0087C36.1019 32.0087 37.7015 33.5911 37.7015 35.5259V41.2159Z" fill="url(#paint1_linear_101_2814)"/>
</g>
<defs>
<linearGradient id="paint0_linear_101_2814" x1="40.5" y1="0" x2="40.5" y2="80" gradientUnits="userSpaceOnUse">
<stop stop-color="#FF007F"/>
<stop offset="0.441" stop-color="#F8519F"/>
<stop offset="0.551" stop-color="#F665A7"/>
<stop offset="1" stop-color="#EFB8C8"/>
</linearGradient>
<linearGradient id="paint1_linear_101_2814" x1="41.4374" y1="14.375" x2="41.4374" y2="67.5" gradientUnits="userSpaceOnUse">
<stop stop-color="white"/>
<stop offset="1" stop-color="white" stop-opacity="0.82"/>
</linearGradient>
<clipPath id="clip0_101_2814">
<rect width="80" height="80" fill="white" transform="translate(0.5)"/>
</clipPath>
</defs>
</svg>
